<svg xmlns="http://www.w3.org/2000/svg" width="158.934" height="35.34" viewBox="0 0 158.934 35.34"><g transform="translate(-325.429 -766.805)"><path d="M385.8,790.616h-3.083a.38.38,0,0,1-.4-.285l-.854-2.632h-5.81l-.854,2.632a.381.381,0,0,1-.4.285h-3.083c-.261,0-.38-.167-.285-.4l5.739-15.913a.406.406,0,0,1,.4-.285h2.728a.465.465,0,0,1,.45.285l5.74,15.913C386.177,790.449,386.059,790.616,385.8,790.616Zm-5.36-6.024-1.873-5.74-1.874,5.74Z" fill="#fff"/><path d="M398.083,779.351V790.26a.336.336,0,0,1-.356.356h-2.751a.349.349,0,0,1-.355-.356l-.1-1.257a4.176,4.176,0,0,1-3.368,1.921c-2.585,0-4.435-1.9-4.435-5v-6.569a.336.336,0,0,1,.356-.356h2.846a.336.336,0,0,1,.356.356v5.857c0,1.874,1.138,2.4,2.039,2.4a2.107,2.107,0,0,0,2.206-2.064v-6.189a.336.336,0,0,1,.355-.356h2.846A.336.336,0,0,1,398.083,779.351Z" fill="#fff"/><path d="M407.285,779.351v2.158a.336.336,0,0,1-.356.355h-1.66v8.4a.336.336,0,0,1-.356.356h-2.845a.336.336,0,0,1-.356-.356v-8.4h-1.66a.336.336,0,0,1-.356-.355v-2.158a.336.336,0,0,1,.356-.356h1.66v-3.2a.336.336,0,0,1,.356-.356h2.845a.336.336,0,0,1,.356.356v3.2h1.66A.336.336,0,0,1,407.285,779.351Z" fill="#fff"/><path d="M408.281,784.829a6.06,6.06,0,1,1,6.048,6.1A6.038,6.038,0,0,1,408.281,784.829Zm8.681,0a2.637,2.637,0,1,0-2.633,2.8A2.655,2.655,0,0,0,416.962,784.829Z" fill="#fff"/><path d="M434.416,784.829c0,3.391-2.371,6.1-5.6,6.1a4.323,4.323,0,0,1-3.13-1.3v5.319a.336.336,0,0,1-.356.356h-2.846a.336.336,0,0,1-.355-.356V779.351a.336.336,0,0,1,.355-.356h2.585a.349.349,0,0,1,.356.356l.071.972a4.342,4.342,0,0,1,3.32-1.589C432.045,778.734,434.416,781.437,434.416,784.829ZM431,784.8a2.68,2.68,0,0,0-2.632-2.846,2.87,2.87,0,0,0,0,5.716A2.687,2.687,0,0,0,431,784.8Z" fill="#fff"/><path d="M444.4,779.848l-.783,2.04c-.1.285-.308.332-.593.261a2.909,2.909,0,0,0-.972-.19,2.312,2.312,0,0,0-2.348,2.514v5.787a.336.336,0,0,1-.356.356H436.5a.336.336,0,0,1-.355-.356V779.351a.336.336,0,0,1,.355-.356h2.728a.35.35,0,0,1,.356.356l.094,1.351a3.3,3.3,0,0,1,2.989-1.968,2.444,2.444,0,0,1,1.612.593A.42.42,0,0,1,444.4,779.848Z" fill="#fff"/><path d="M445.824,775.058a1.909,1.909,0,1,1,1.921,1.9A1.913,1.913,0,0,1,445.824,775.058Zm.5,3.937h2.846a.336.336,0,0,1,.356.356V790.26a.337.337,0,0,1-.356.356h-2.846a.337.337,0,0,1-.356-.356V779.351A.336.336,0,0,1,446.322,778.995Z" fill="#fff"/><path d="M470.821,783.738v6.522a.337.337,0,0,1-.356.356h-2.846a.336.336,0,0,1-.356-.356v-5.811c0-1.873-1.043-2.419-1.992-2.419A2.193,2.193,0,0,0,463.018,784v6.261a.336.336,0,0,1-.356.356h-2.846a.337.337,0,0,1-.356-.356v-5.811c0-1.873-1.043-2.419-1.992-2.419a2.36,2.36,0,0,0-2.253,2.135v6.1a.336.336,0,0,1-.355.356h-2.846a.336.336,0,0,1-.356-.356V779.351a.336.336,0,0,1,.356-.356h2.751a.348.348,0,0,1,.355.356l.1,1.47a4.07,4.07,0,0,1,3.581-2.087,3.934,3.934,0,0,1,3.534,2.111,4.721,4.721,0,0,1,4.032-2.111C468.947,778.734,470.821,780.631,470.821,783.738Z" fill="#fff"/><path d="M484.363,779.351V790.26a.337.337,0,0,1-.356.356h-2.585a.35.35,0,0,1-.356-.356l-.071-.854a4.325,4.325,0,0,1-3.32,1.518c-3.226,0-5.6-2.7-5.6-6.1s2.371-6.095,5.6-6.095a4.342,4.342,0,0,1,3.32,1.589l.071-.972a.349.349,0,0,1,.356-.356h2.585A.336.336,0,0,1,484.363,779.351Zm-3.629,5.454a2.72,2.72,0,0,0-2.609-2.846,2.868,2.868,0,0,0,0,5.716A2.741,2.741,0,0,0,480.734,784.8Z" fill="#fff"/><path d="M438.652,795.668c0,.651-.413,1.01-1.263,1.01h-1.12a.072.072,0,0,1-.075-.075V793.27a.071.071,0,0,1,.075-.075h1.125c.716,0,1.019.418,1.019.857a.754.754,0,0,1-.473.751A.883.883,0,0,1,438.652,795.668Zm-1.308-1.985h-.607v.92h.607c.338,0,.557-.169.557-.5C437.9,793.808,437.677,793.683,437.344,793.683Zm.76,1.935c0-.349-.233-.557-.715-.557h-.652v1.129h.652C437.847,796.19,438.1,796.021,438.1,795.618Z" fill="#fff"/><path d="M441.935,795.464a1.249,1.249,0,1,1,1.249,1.278A1.247,1.247,0,0,1,441.935,795.464Zm1.995,0a.748.748,0,1,0-.746.8A.756.756,0,0,0,443.93,795.464Z" fill="#fff"/><path d="M450.2,793.121V796.6a.071.071,0,0,1-.074.075h-.339a.073.073,0,0,1-.074-.075l-.021-.249a1,1,0,0,1-.795.388,1.282,1.282,0,0,1,0-2.557,1.008,1.008,0,0,1,.781.378v-1.442a.07.07,0,0,1,.075-.074h.373A.07.07,0,0,1,450.2,793.121Zm-.512,2.338a.759.759,0,0,0-.737-.8.746.746,0,0,0-.735.8.754.754,0,0,0,.735.806A.765.765,0,0,0,449.684,795.459Z" fill="#fff"/><path d="M455.932,794.325l-1.284,3.238a.09.09,0,0,1-.088.06h-.374c-.055,0-.08-.03-.06-.085l.349-.851-.936-2.362c-.02-.055.005-.085.06-.085h.378a.089.089,0,0,1,.089.06l.667,1.771.666-1.771a.092.092,0,0,1,.09-.06h.383C455.927,794.24,455.952,794.27,455.932,794.325Z" fill="#fff"/><path d="M463.288,794.325l-.86,2.293a.092.092,0,0,1-.09.06h-.373a.092.092,0,0,1-.09-.06l-.651-1.7-.647,1.7a.091.091,0,0,1-.09.06h-.378a.092.092,0,0,1-.09-.06l-.855-2.293c-.02-.055.005-.085.06-.085h.363a.092.092,0,0,1,.09.06l.636,1.781.652-1.781a.072.072,0,0,1,.05-.05.09.09,0,0,1,.04-.01h.338a.094.094,0,0,1,.04.01.069.069,0,0,1,.049.05l.657,1.781.631-1.781a.092.092,0,0,1,.09-.06h.368C463.283,794.24,463.308,794.27,463.288,794.325Z" fill="#fff"/><path d="M466.356,795.464a1.249,1.249,0,1,1,1.249,1.278A1.247,1.247,0,0,1,466.356,795.464Zm2,0a.748.748,0,1,0-.747.8A.756.756,0,0,0,468.352,795.464Z" fill="#fff"/><path d="M473.693,794.375l-.114.273c-.02.05-.05.055-.1.045a.61.61,0,0,0-.2-.03.509.509,0,0,0-.522.532V796.6a.071.071,0,0,1-.074.075h-.374a.071.071,0,0,1-.074-.075v-2.289a.07.07,0,0,1,.074-.074h.348a.073.073,0,0,1,.075.074l.02.24a.7.7,0,0,1,.612-.369.509.509,0,0,1,.309.1A.067.067,0,0,1,473.693,794.375Z" fill="#fff"/><path d="M479.145,796.678h-.4a.1.1,0,0,1-.09-.045l-.805-1.039-.389.412v.6a.071.071,0,0,1-.074.075h-.373a.071.071,0,0,1-.075-.075v-3.482a.07.07,0,0,1,.075-.074h.373a.069.069,0,0,1,.074.074v2.259l1.035-1.1a.118.118,0,0,1,.1-.04h.423c.064,0,.084.04.039.09l-.88.93,1.019,1.328C479.23,796.638,479.2,796.678,479.145,796.678Z" fill="#fff"/><path d="M484.184,796.026a.819.819,0,0,1-.891.716,1.225,1.225,0,0,1-.915-.407.076.076,0,0,1-.005-.1l.154-.2c.034-.045.065-.035.11,0a1.116,1.116,0,0,0,.641.264c.219,0,.4-.085.4-.279,0-.477-1.253-.308-1.253-1.125a.747.747,0,0,1,.815-.706,1.089,1.089,0,0,1,.811.369.076.076,0,0,1-.005.1l-.139.184c-.03.04-.07.025-.109-.005a.808.808,0,0,0-.527-.224c-.169,0-.344.085-.344.274C482.925,795.359,484.184,795.145,484.184,796.026Z" fill="#fff"/><path d="M344.516,781.132,339.7,769.095l-.237.594,4.581,11.443Z" fill="#fff"/><path d="M343.4,782.7l-5.358-13.364-.25.626,4.774,11.907h-.315l1.254,3.128.411-1-.517-1.29Z" fill="#fff"/><path d="M342.52,784.849l-5.347-13.338-.263.658,3.887,9.7h-.339l2.136,5.329.437-1.068-.512-1.277Z" fill="#fff"/><path d="M336.027,774.381l3,7.486h-.364l3.018,7.529.463-1.132L336.3,773.69Z" fill="#fff"/><path d="M340.757,789.15l-5.325-13.282-.289.723,2.115,5.275h-.39l3.9,9.729.489-1.2-.5-1.25Z" fill="#fff"/><path d="M338.119,795.616l-5.3-13.214-.328.82.8,2-.23.6,4.963,12.379.568-1.388-.477-1.19Z" fill="#fff"/><path d="M337.239,797.768l-5.287-13.188-.341.853.81,2.02-.243.8,4.936,12.139.595-1.453-.47-1.173Z" fill="#fff"/><path d="M329.845,789.855l.83,2.071-.267.695,3.809,9.5H335.5l-5.286-13.184Z" fill="#fff"/><path d="M328.961,792.066l.839,2.093-.281.729,2.9,7.233h1.334l-4.412-11.006Z" fill="#fff"/><path d="M328.078,794.276l.849,2.119-.293.761,1.991,4.965h1.385l-3.539-8.828Z" fill="#fff"/><path d="M327.195,796.487l.858,2.141-.306.8,1.081,2.7h1.438l-2.666-6.65Z" fill="#fff"/><path d="M325.429,800.908l.486,1.213h.865l-.92-2.293Z" fill="#fff"/><path d="M344.538,782.9l.422-1.03h-.88Z" fill="#fff"/><path d="M334.26,778.8l1.229,3.065h-.414l4.783,11.93.516-1.26-5.811-14.49Z" fill="#fff"/><path d="M334.478,782.185l-.786-1.961-.315.788.793,1.978-.216.56L338.944,796l.542-1.324-5.007-12.49Z" fill="#fff"/><path d="M331.9,788.788l-.814-2.029-.354.886.821,2.049-.254.66,4.718,11.768h.385l.426-1.041L331.9,788.787Z" fill="#fff"/><path d="M327.593,799.8l-.863-2.152-.419,1.048.869,2.168-.318.826.172.43h1.489l-.93-2.32Z" fill="#fff"/><path d="M364.881,801.325l-13.493-33.337a1.622,1.622,0,0,0-1.351-1.179h-9.972a.7.7,0,0,0-.082,0,1.041,1.041,0,0,0-.175.015h0a1.107,1.107,0,0,0-.123.027l-.018.005a1.157,1.157,0,0,0-.6.409,1.219,1.219,0,0,1,.547-.136.96.96,0,0,1,.737.341l.009.01a1.409,1.409,0,0,1,.09.116,2.538,2.538,0,0,1,.3.554l.736,1.825,12.078,29.973a3.026,3.026,0,0,0,2.524,2.2H364.6C364.874,802.145,365.028,801.689,364.881,801.325Z" fill="#ffb711"/><path d="M336.106,802.121" fill="#fff"/></g></svg>